<svg width="2282" height="1098" xmlns="http://www.w3.org/2000/svg" xmlns:xlink="http://www.w3.org/1999/xlink" overflow="hidden"><defs><clipPath id="clip0"><rect x="446" y="241" width="2282" height="1098"/></clipPath><clipPath id="clip1"><rect x="753" y="304" width="1925" height="689"/></clipPath><clipPath id="clip2"><rect x="446" y="242" width="2279" height="1095"/></clipPath><clipPath id="clip3"><rect x="446" y="242" width="2279" height="1095"/></clipPath><clipPath id="clip4"><rect x="446" y="242" width="2279" height="1095"/></clipPath><clipPath id="clip5"><rect x="446" y="242" width="2279" height="1095"/></clipPath><clipPath id="clip6"><rect x="446" y="242" width="2279" height="1095"/></clipPath><clipPath id="clip7"><rect x="446" y="242" width="2279" height="1095"/></clipPath><clipPath id="clip8"><rect x="446" y="242" width="2279" height="1095"/></clipPath><clipPath id="clip9"><rect x="446" y="242" width="2279" height="1095"/></clipPath><clipPath id="clip10"><rect x="446" y="242" width="2279" height="1095"/></clipPath><clipPath id="clip11"><rect x="446" y="242" width="2279" height="1095"/></clipPath><clipPath id="clip12"><rect x="446" y="242" width="2279" height="1095"/></clipPath><clipPath id="clip13"><rect x="446" y="242" width="2279" height="1095"/></clipPath><clipPath id="clip14"><rect x="446" y="242" width="2279" height="1095"/></clipPath><clipPath id="clip15"><rect x="446" y="242" width="2279" height="1095"/></clipPath><clipPath id="clip16"><rect x="446" y="242" width="2279" height="1095"/></clipPath><clipPath id="clip17"><rect x="446" y="242" width="2279" height="1095"/></clipPath><clipPath id="clip18"><rect x="446" y="242" width="2279" height="1095"/></clipPath><clipPath id="clip19"><rect x="446" y="242" width="2279" height="1095"/></clipPath><clipPath id="clip20"><rect x="446" y="242" width="2279" height="1095"/></clipPath><clipPath id="clip21"><rect x="446" y="242" width="2279" height="1095"/></clipPath></defs><g clip-path="url(#clip0)" transform="translate(-446 -241)"><rect x="447" y="242" width="2279" height="1095" fill="#FFFFFF"/><g clip-path="url(#clip1)"><path d="M918.03 390.013 1069.04 390.013 1069.04 990 918.03 990ZM1399.05 879.029 1549.05 879.029 1549.05 990 1399.05 990ZM1879.06 840.028 2030.07 840.028 2030.07 990 1879.06 990ZM2360.08 360.012 2510.08 360.012 2510.08 990 2360.08 990Z" fill="#5B9BD5"/></g><g clip-path="url(#clip2)"><path d="M753.5 990.5 2675.5 990.5" stroke="#D9D9D9" stroke-width="3.4375" stroke-linejoin="round" stroke-miterlimit="10" fill="none" fill-rule="evenodd"/></g><g clip-path="url(#clip3)"><text fill="#595959" font-family="Calibri,Calibri_MSFontService,sans-serif" font-weight="400" font-size="64" transform="matrix(1 0 0 1 661.283 1009)">0</text></g><g clip-path="url(#clip4)"><text fill="#595959" font-family="Calibri,Calibri_MSFontService,sans-serif" font-weight="400" font-size="64" transform="matrix(1 0 0 1 628.764 923)">20</text></g><g clip-path="url(#clip5)"><text fill="#595959" font-family="Calibri,Calibri_MSFontService,sans-serif" font-weight="400" font-size="64" transform="matrix(1 0 0 1 628.764 837)">40</text></g><g clip-path="url(#clip6)"><text fill="#595959" font-family="Calibri,Calibri_MSFontService,sans-serif" font-weight="400" font-size="64" transform="matrix(1 0 0 1 628.764 751)">60</text></g><g clip-path="url(#clip7)"><text fill="#595959" font-family="Calibri,Calibri_MSFontService,sans-serif" font-weight="400" font-size="64" transform="matrix(1 0 0 1 628.764 666)">80</text></g><g clip-path="url(#clip8)"><text fill="#595959" font-family="Calibri,Calibri_MSFontService,sans-serif" font-weight="400" font-size="64" transform="matrix(1 0 0 1 596.245 580)">100</text></g><g clip-path="url(#clip9)"><text fill="#595959" font-family="Calibri,Calibri_MSFontService,sans-serif" font-weight="400" font-size="64" transform="matrix(1 0 0 1 596.245 494)">120</text></g><g clip-path="url(#clip10)"><text fill="#595959" font-family="Calibri,Calibri_MSFontService,sans-serif" font-weight="400" font-size="64" transform="matrix(1 0 0 1 596.245 408)">140</text></g><g clip-path="url(#clip11)"><text fill="#595959" font-family="Calibri,Calibri_MSFontService,sans-serif" font-weight="400" font-size="64" transform="matrix(1 0 0 1 596.245 323)">160</text></g><g clip-path="url(#clip12)"><text fill="#595959" font-family="Calibri,Calibri_MSFontService,sans-serif" font-weight="400" font-size="64" transform="matrix(1 0 0 1 791.686 1092)">3cM (437/892),</text></g><g clip-path="url(#clip13)"><text fill="#595959" font-family="Calibri,Calibri_MSFontService,sans-serif" font-weight="400" font-size="64" transform="matrix(1 0 0 1 783.436 1170)">27cM (437/892)</text></g><g clip-path="url(#clip14)"><text fill="#595959" font-family="Calibri,Calibri_MSFontService,sans-serif" font-weight="400" font-size="64" transform="matrix(1 0 0 1 1272.23 1092)">3cM (437/892),</text></g><g clip-path="url(#clip15)"><text fill="#595959" font-family="Calibri,Calibri_MSFontService,sans-serif" font-weight="400" font-size="64" transform="matrix(1 0 0 1 1325.15 1170)">27cM (892)</text></g><g clip-path="url(#clip16)"><text fill="#595959" font-family="Calibri,Calibri_MSFontService,sans-serif" font-weight="400" font-size="64" transform="matrix(1 0 0 1 1733.18 1092)">3cM (892), 27cM</text></g><g clip-path="url(#clip17)"><text fill="#595959" font-family="Calibri,Calibri_MSFontService,sans-serif" font-weight="400" font-size="64" transform="matrix(1 0 0 1 1825.3 1170)">(437/892)</text></g><g clip-path="url(#clip18)"><text fill="#595959" font-family="Calibri,Calibri_MSFontService,sans-serif" font-weight="400" font-size="64" transform="matrix(1 0 0 1 2213.72 1092)">3cM (892), 27cM</text></g><g clip-path="url(#clip19)"><text fill="#595959" font-family="Calibri,Calibri_MSFontService,sans-serif" font-weight="400" font-size="64" transform="matrix(1 0 0 1 2367.01 1170)">(892)</text></g><g clip-path="url(#clip20)"><text fill="#595959" font-family="Calibri,Calibri_MSFontService,sans-serif" font-weight="700" font-size="64" transform="matrix(6.12323e-17 -1 1 6.12323e-17 565.17 853)">Number of flies</text></g><g clip-path="url(#clip21)"><text fill="#595959" font-family="Calibri,Calibri_MSFontService,sans-serif" font-weight="700" font-size="64" transform="matrix(1 0 0 1 1583.66 1263)">Genotype</text></g><rect x="447.5" y="242.5" width="2279" height="1095" stroke="#D9D9D9" stroke-width="3.4375" stroke-linejoin="round" stroke-miterlimit="10" fill="none"/></g></svg>